<svg xmlns="http://www.w3.org/2000/svg" viewBox="0 0 496 496">
  <circle cx="248" cy="248" r="184" fill="#ffcb57"/>
  <g fill="#e56565">
    <path d="M171.5787024 63.1562128l-15.9981328 7.9990664-7.1552-14.3104 15.9981328-7.9990664zM63.2451184 171.3573354l-5.6597632 16.9685568-15.1776-5.0624 5.6597632-16.9685568zM71.1531896 340.4222912l-14.3104 7.1552-7.9990664-15.9981328 14.3104-7.1552zM188.3233361 438.3681974l-5.0592 15.1792-16.9703456-5.6561856 5.0592-15.1792zM347.57396 439.159624l-15.9981328 7.9990664-7.1552-14.3104 15.9981328-7.9990664zM453.5985782 312.777864l-5.6597632 16.9685568-15.1776-5.0624 5.6597632-16.9685568zM447.1560984 164.4421288l-14.3104 7.1552-7.9990664-15.9981328 14.3104-7.1552zM329.7189308 48.0701803l-5.0592 15.1792-16.9703456-5.6561856 5.0592-15.1792z"/>
  </g>
  <g fill="#3f3a34">
    <path d="M248 0C111.256 0 0 111.256 0 248s111.256 248 248 248 248-111.256 248-248S384.744 0 248 0zm-8 64.2c-44.712 1.92-85.328 19.864-116.256 48.232L89.816 78.504C129.472 41.472 182.064 18.176 240 16.2v48zm-127.568 59.544C84.064 154.672 66.128 195.288 64.2 240h-48c1.976-57.936 25.272-110.528 62.304-150.184l33.928 33.928zM64.24 256c1.912 43.328 19.232 84.544 48.192 116.248l-33.928 33.928C41.472 366.528 18.176 313.936 16.2 256h48.04zm59.472 127.6c4.936 4.544 10.12 8.856 15.584 12.864l9.464-12.896C105.704 352 80 301.32 80 248c0-92.64 75.36-168 168-168 29.824 0 59.112 7.912 84.696 22.88l8.08-13.816C315.032 74.008 285.872 65.56 256 64.264V16.2c57.936 1.976 110.528 25.272 150.184 62.304l-33.888 33.888c-4.936-4.544-10.12-8.856-15.584-12.864l-9.464 12.896C390.296 144 416 194.68 416 248c0 92.64-75.36 168-168 168-29.824 0-59.112-7.912-84.696-22.88l-8.08 13.816c25.744 15.056 54.904 23.504 84.776 24.8V479.8c-57.936-1.976-110.528-25.272-150.184-62.304l33.896-33.896zM256 431.8c44.712-1.92 85.328-19.864 116.256-48.232l33.928 33.928C366.528 454.528 313.936 477.824 256 479.8v-48zm127.568-59.544C411.936 341.328 429.872 300.712 431.8 256h48c-1.976 57.936-25.272 110.528-62.304 150.184l-33.928-33.928zM431.76 240c-1.912-43.328-19.232-84.544-48.192-116.248l33.928-33.928c37.032 39.656 60.328 92.248 62.304 150.184h-48.04V240z"/>
    <path d="M200 400h16v-32h56v32h16v-32.552c31.52-3.96 56-30.872 56-63.448 0-24.064-13.352-45.072-33.04-56 19.688-10.928 33.04-31.936 33.04-56 0-32.576-24.48-59.488-56-63.448V96h-16v32h-56V96h-16v32h-32v240h32v32zm-16-256h96c26.472 0 48 21.528 48 48s-21.528 48-48 48h-96v-96zm0 112h96c26.472 0 48 21.528 48 48s-21.528 48-48 48h-96v-96z"/>
  </g>
</svg>
